<svg width="139" height="201" viewBox="0 0 139 201" fill="none" xmlns="http://www.w3.org/2000/svg">
<path d="M20.2559 181.642V146.551L56.3321 134.236V167.808L22.8521 183.132C21.6748 183.694 20.2559 182.879 20.2559 181.642Z" fill="#F2D4BD"/>
<path d="M56.3019 200.845L21.2521 184.79C20.6483 184.509 20.2559 183.918 20.2559 183.272V146.55L56.3019 158.866V200.845Z" fill="#F5DFCE"/>
<path d="M89.7818 183.132L56.332 167.808V134.236L92.378 146.551V181.642C92.378 182.879 90.9893 183.694 89.7818 183.132Z" fill="#F2D4BD"/>
<path d="M106.054 133.702L92.378 146.551L56.332 134.236L69.9776 121.499L106.054 133.702Z" fill="#F9EADE"/>
<path d="M42.6563 121.499L56.332 134.236L20.2558 146.551L6.58008 133.702L42.6563 121.499Z" fill="#F9EADE"/>
<path d="M56.3018 158.866L92.378 146.55V183.272C92.378 183.918 91.9855 184.509 91.3817 184.79L56.3018 200.845V158.866Z" fill="#F9EADE"/>
<path d="M38.2487 186.646L23.9692 180.657C23.4559 180.432 23.0635 179.897 23.0635 179.419V172.559C23.0635 172.109 23.4559 171.912 23.9692 172.109L38.2487 178.098C38.7619 178.323 39.1544 178.857 39.1544 179.335V186.196C39.1544 186.646 38.7619 186.871 38.2487 186.646Z" fill="#F9EADE"/>
<path d="M14.2178 132.494L49.9015 144.697L56.3017 158.868L20.2556 146.552L14.2178 132.494Z" fill="#F2D4BD"/>
<path d="M98.4159 132.492L98.2649 132.829L92.378 146.55L56.6943 158.725L56.332 158.866L62.7321 144.695L98.4159 132.492Z" fill="#F2D4BD"/>
<path d="M55.9394 158.725L49.6299 144.807L49.9016 144.695L50.1733 144.61L56.513 158.557L56.2413 158.669L56.03 158.753L55.9394 158.725Z" fill="#F5DFCE"/>
<path d="M49.6296 144.807L14.127 132.745L14.3383 132.21L50.173 144.61L49.6296 144.807Z" fill="#F9EADE"/>
<path d="M98.5066 132.745L98.2651 132.829L62.9436 144.92L56.6944 158.725L56.3322 158.866L56.0303 158.753L62.4908 144.498L98.2953 132.21L98.416 132.492L98.5066 132.745Z" fill="#F9EADE"/>
<rect x="15.9756" y="45.6157" width="91.2356" height="55.5347" rx="27.7674" transform="rotate(-12.4641 15.9756 45.6157)" fill="#F9EADE"/>
<path fill-rule="evenodd" clip-rule="evenodd" d="M38.5592 39.1441C23.5851 42.4539 14.1294 57.2759 17.4393 72.25C20.1304 84.4247 30.4317 92.9515 42.2374 93.9351L41.0409 94.1841L48.9334 102.31C49.4219 102.813 50.2637 102.664 50.55 102.024L54.8461 92.4192L85.4047 85.6646C100.379 82.3548 109.834 67.5328 106.525 52.5587C103.215 37.5847 88.3927 28.1289 73.4187 31.4388L38.5592 39.1441Z" fill="#F9EADE"/>
<circle cx="53" cy="113.999" r="4.5" fill="#F9EADE"/>
<circle cx="56" cy="125.999" r="2.5" fill="#F9EADE"/>
<path d="M41.1467 71.857L40.6029 69.2744L45.9668 56.6697L49.7938 55.8639L52.0482 66.5702L54.1143 66.1351L54.7175 68.9995L52.6513 69.4346L53.3533 72.7686L50.0663 73.4607L49.3643 70.1267L41.1467 71.857ZM47.4597 60.0333L44.1593 68.2313L48.9725 67.2178L47.4597 60.0333ZM54.9295 63.2663C54.3593 60.5584 54.398 58.3353 55.0454 56.5971C55.7085 54.8555 57.1749 53.7457 59.4445 53.2678C61.7141 52.7899 63.4957 53.2158 64.7891 54.5454C66.0982 55.8717 67.0379 57.8888 67.608 60.5967C68.1815 63.3202 68.1383 65.5606 67.4785 67.3178C66.8344 69.0718 65.3775 70.1877 63.1079 70.6656C60.8383 71.1435 59.0472 70.7114 57.7349 69.3695C56.4381 68.0242 55.503 65.9898 54.9295 63.2663ZM64.368 61.2789C64.1241 60.1206 63.8415 59.1666 63.5202 58.417C63.2112 57.6484 62.777 57.0614 62.2176 56.6561C61.6739 56.2475 60.9637 56.1355 60.0872 56.3201C59.2107 56.5046 58.5982 56.8951 58.2497 57.4916C57.9169 58.0848 57.7563 58.797 57.7679 59.6282C57.7918 60.4405 57.9257 61.4258 58.1696 62.5841C58.4201 63.7737 58.7014 64.7606 59.0137 65.5449C59.3227 66.3135 59.7568 66.9004 60.3162 67.3057C60.8723 67.6954 61.5886 67.7979 62.4652 67.6133C63.3417 67.4288 63.9559 67.0461 64.3076 66.4653C64.6561 65.8688 64.8167 65.1566 64.7895 64.3287C64.759 63.4851 64.6185 62.4685 64.368 61.2789ZM70.3805 65.7015L69.8367 63.1188L75.2006 50.5141L79.0276 49.7083L81.282 60.4146L83.3481 59.9795L83.9512 62.8439L81.8851 63.279L82.5871 66.613L79.3001 67.3051L78.5981 63.9711L70.3805 65.7015ZM76.6935 53.8777L73.3931 62.0757L78.2063 61.0622L76.6935 53.8777Z" fill="#1A1A1A"/>
</svg>
