<svg width="201" height="100" viewBox="0 0 201 100" fill="none" xmlns="http://www.w3.org/2000/svg">
<path d="M143.437 79.9724C126.993 101.948 95.8496 106.433 73.8735 89.9896C51.8975 73.5461 47.4128 42.4023 63.8563 20.4263C80.2999 -1.54974 111.444 -6.03449 133.42 10.4091C155.396 26.8526 159.88 57.9964 143.437 79.9724Z" fill="#FEFBF9"/>
<path d="M91.0393 68.796L73.1666 92.682C70.0702 96.8201 64.2107 97.6587 60.0784 94.5667L23.9194 67.5107C20.8423 65.2082 16.4888 65.8404 14.1864 68.9175L2.66092 84.3208C2.26395 84.8513 1.51163 84.9597 0.981093 84.5627C0.450556 84.1657 0.342224 83.4134 0.739198 82.8829L12.2647 67.4796C15.3611 63.3414 21.2191 62.4926 25.3573 65.589L61.5163 92.6449C64.5876 94.943 68.9425 94.3211 71.2449 91.244L89.1175 67.3581L91.0393 68.796Z" fill="#F2D4BD"/>
<path d="M199.882 43.0415C199.485 43.572 198.733 43.6804 198.202 43.2834L147.31 5.19448C144.239 2.89645 139.88 3.52419 137.577 6.60131L118.69 31.8431L116.769 30.4052L135.656 5.16338C138.752 1.02519 144.612 0.18667 148.744 3.27866L199.64 41.3617C200.171 41.7587 200.279 42.511 199.882 43.0415Z" fill="#F2D4BD"/>
<path d="M116.224 26.9412L119.087 23.1154C119.395 22.7028 119.827 22.4461 120.284 22.3381C120.86 22.2079 121.476 22.3191 121.983 22.6984L124.918 24.895C125.832 25.5787 126.013 26.8728 125.329 27.7865L122.467 31.6123L116.224 26.9412Z" fill="#F5DFCE"/>
<path d="M106.287 33.4241L112.008 25.7785C112.895 24.5936 114.57 24.3576 115.749 25.2398L124.238 31.5914C125.417 32.4735 125.663 34.1475 124.776 35.3323L119.056 42.978L106.287 33.4241Z" fill="#F9EADE"/>
<path d="M104.2 34.0534L105.043 32.9275C105.157 32.7742 105.374 32.743 105.527 32.8577L119.816 43.5495C119.969 43.6642 120.001 43.8806 119.886 44.0339L119.043 45.1598C118.929 45.3131 118.712 45.3442 118.559 45.2296L104.27 34.5377C104.117 34.4231 104.086 34.2066 104.2 34.0534Z" fill="#F5DFCE"/>
<path d="M89.3374 75.8859L86.4748 79.7117C85.7911 80.6254 84.4985 80.8168 83.5848 80.1331L80.6491 77.9365C80.1422 77.5572 79.8662 76.992 79.8243 76.409C79.7987 75.9393 79.9234 75.4532 80.2321 75.0406L83.0947 71.2148L89.3374 75.8859Z" fill="#F5DFCE"/>
<path d="M99.2819 69.4034L93.5611 77.0491C92.6789 78.2281 90.9991 78.4699 89.8201 77.5878L81.3315 71.2362C80.1526 70.354 79.9107 68.6742 80.7928 67.4952L86.5137 59.8496L99.2819 69.4034Z" fill="#F9EADE"/>
<path d="M87.0105 57.5999L101.3 68.2917C101.453 68.4064 101.484 68.6228 101.369 68.7761L100.531 69.8961C100.412 70.0553 100.196 70.0864 100.043 69.9718L85.7534 59.2799C85.6001 59.1652 85.5689 58.9488 85.688 58.7897L86.5261 57.6696C86.6408 57.5164 86.8572 57.4852 87.0105 57.5999Z" fill="#F5DFCE"/>
<path d="M92.2389 61.5131L90.0637 59.8855L93.9584 54.6804C94.4083 54.0791 95.2578 53.9515 95.8591 54.4014C96.4603 54.8513 96.5835 55.7067 96.1336 56.308L92.2389 61.5131Z" fill="#F2D4BD"/>
<path d="M98.2457 66.0073L96.0705 64.3797L99.9652 59.1745C100.415 58.5733 101.271 58.4501 101.866 58.8956C102.467 59.3455 102.59 60.2009 102.14 60.8021L98.2457 66.0073Z" fill="#F2D4BD"/>
<path d="M89.6681 34.0302L85.7186 31.075C85.4179 30.85 85.3556 30.4172 85.5805 30.1165C85.8055 29.8159 86.2339 29.7595 86.5346 29.9844L90.4841 32.9397C90.7847 33.1646 90.8515 33.5916 90.6265 33.8922C90.4016 34.1928 89.9687 34.2552 89.6681 34.0302Z" fill="#F9EADE"/>
<path d="M98.439 32.7662C98.1384 32.5413 98.082 32.1128 98.3069 31.8122L101.262 27.8626C101.487 27.562 101.91 27.5012 102.21 27.7261C102.511 27.9511 102.578 28.378 102.353 28.6786L99.3975 32.6282C99.1725 32.9288 98.7397 32.9912 98.439 32.7662Z" fill="#F9EADE"/>
<path d="M93.7772 31.4386C93.6357 31.3328 93.5398 31.1783 93.5131 30.9928L92.8246 26.2477C92.7711 25.8767 93.0314 25.5289 93.4024 25.4755C93.7734 25.4221 94.1212 25.6823 94.1746 26.0533L94.8528 30.7998C94.9063 31.1708 94.6504 31.5127 94.2794 31.5662C94.0939 31.5929 93.9187 31.5445 93.7772 31.4386Z" fill="#F9EADE"/>
<path d="M114.003 71.334L117.953 74.2893C118.253 74.5142 118.314 74.9368 118.089 75.2374C117.864 75.538 117.442 75.5989 117.141 75.3739L113.192 72.4187C112.891 72.1937 112.824 71.7668 113.049 71.4662C113.274 71.1655 113.703 71.1091 114.003 71.334Z" fill="#F9EADE"/>
<path d="M105.226 72.5933C105.527 72.8182 105.593 73.2452 105.368 73.5458L102.409 77.5013C102.184 77.8019 101.755 77.8583 101.455 77.6334C101.154 77.4084 101.093 76.9859 101.318 76.6853L104.278 72.7298C104.503 72.4292 104.925 72.3683 105.226 72.5933Z" fill="#F9EADE"/>
<path d="M109.9 73.918C110.035 74.0195 110.137 74.1784 110.164 74.3639L110.848 79.1148C110.901 79.4858 110.646 79.8277 110.275 79.8811C109.904 79.9345 109.556 79.6743 109.502 79.3033L108.818 74.5524C108.765 74.1814 109.021 73.8395 109.392 73.7861C109.583 73.7638 109.758 73.8122 109.9 73.918Z" fill="#F9EADE"/>
</svg>
