<svg width="20" height="20" viewBox="0 0 20 20" fill="none" xmlns="http://www.w3.org/2000/svg">
<rect width="20" height="20" rx="10" fill="white"/>
<path fill-rule="evenodd" clip-rule="evenodd" d="M8.32969 7.07526C8.36301 6.91028 8.38049 6.73956 8.38049 6.56476C8.38049 6.19474 8.30215 5.84303 8.16115 5.52529L8.43062 5.12109C8.52336 4.98199 8.67947 4.89844 8.84665 4.89844H12.5779C12.7451 4.89844 12.9012 4.98199 12.9939 5.12109L13.7783 6.29766H15.3767C15.7567 6.29766 16.1212 6.44862 16.3899 6.71732C16.6586 6.98603 16.8095 7.35047 16.8095 7.73048V14.2602C16.8095 14.6402 16.6586 15.0046 16.3899 15.2733C16.1212 15.5421 15.7567 15.693 15.3767 15.693H6.04854C5.66853 15.693 5.30409 15.5421 5.03538 15.2733C4.76668 15.0046 4.61572 14.6402 4.61572 14.2602V8.83285C4.91821 8.99316 5.25661 9.09473 5.61572 9.12236V14.2602C5.61572 14.375 5.66132 14.4851 5.74249 14.5662C5.82366 14.6474 5.93375 14.693 6.04854 14.693H15.3767C15.4915 14.693 15.6016 14.6474 15.6828 14.5662C15.7639 14.4851 15.8095 14.375 15.8095 14.2602V7.73048C15.8095 7.61569 15.7639 7.5056 15.6828 7.42443C15.6016 7.34326 15.4915 7.29766 15.3767 7.29766H13.5107C13.3436 7.29766 13.1874 7.21411 13.0947 7.07501L12.3103 5.89844H9.11424L8.32986 7.07501C8.3298 7.07509 8.32975 7.07518 8.32969 7.07526ZM10.7126 9.16333C9.82959 9.16333 9.11377 9.87915 9.11377 10.7622C9.11377 11.6452 9.82959 12.361 10.7126 12.361C11.5956 12.361 12.3114 11.6452 12.3114 10.7622C12.3114 9.87915 11.5956 9.16333 10.7126 9.16333ZM8.11377 10.7622C8.11377 9.32687 9.27731 8.16333 10.7126 8.16333C12.1479 8.16333 13.3114 9.32687 13.3114 10.7622C13.3114 12.1975 12.1479 13.361 10.7126 13.361C9.27731 13.361 8.11377 12.1975 8.11377 10.7622Z" fill="#1D474F"/>
<path fill-rule="evenodd" clip-rule="evenodd" d="M5.81525 4.5C4.67464 4.5 3.75 5.42464 3.75 6.56525C3.75 7.70585 4.67464 8.63049 5.81525 8.63049C6.95585 8.63049 7.88049 7.70585 7.88049 6.56525C7.88049 5.42464 6.95585 4.5 5.81525 4.5ZM2.75 6.56525C2.75 4.87236 4.12236 3.5 5.81525 3.5C7.50813 3.5 8.88049 4.87236 8.88049 6.56525C8.88049 8.25813 7.50813 9.63049 5.81525 9.63049C4.12236 9.63049 2.75 8.25813 2.75 6.56525ZM5.81534 5.13257C6.09148 5.13257 6.31534 5.35643 6.31534 5.63257V6.06543H6.7482C7.02434 6.06543 7.2482 6.28929 7.2482 6.56543C7.2482 6.84157 7.02434 7.06543 6.7482 7.06543H6.31534V7.4982C6.31534 7.77434 6.09148 7.9982 5.81534 7.9982C5.5392 7.9982 5.31534 7.77434 5.31534 7.4982V7.06543H4.88257C4.60643 7.06543 4.38257 6.84157 4.38257 6.56543C4.38257 6.28929 4.60643 6.06543 4.88257 6.06543H5.31534V5.63257C5.31534 5.35643 5.5392 5.13257 5.81534 5.13257Z" fill="#1D474F"/>
</svg>
