<svg width="14" height="14" viewBox="0 0 14 14" fill="none" xmlns="http://www.w3.org/2000/svg">
<path d="M10.3334 1.72201H13C13.1769 1.72201 13.3464 1.79224 13.4714 1.91727C13.5965 2.04229 13.6667 2.21186 13.6667 2.38867V13.0553C13.6667 13.2321 13.5965 13.4017 13.4714 13.5267C13.3464 13.6518 13.1769 13.722 13 13.722H1.00004C0.82323 13.722 0.65366 13.6518 0.528636 13.5267C0.403612 13.4017 0.333374 13.2321 0.333374 13.0553V2.38867C0.333374 2.21186 0.403612 2.04229 0.528636 1.91727C0.65366 1.79224 0.82323 1.72201 1.00004 1.72201H3.66671V0.388672H5.00004V1.72201H9.00004V0.388672H10.3334V1.72201ZM1.66671 5.722V12.3887H12.3334V5.722H1.66671ZM3.00004 8.38867H6.33337V11.0553H3.00004V8.38867Z" fill="#1D474F"/>
</svg>
