<svg width="59" height="58" viewBox="0 0 59 58" fill="none" xmlns="http://www.w3.org/2000/svg">
<ellipse cx="29.5" cy="29" rx="29.2437" ry="29" fill="url(#paint0_linear_4896_50170)"/>
<circle cx="38.752" cy="23.9321" r="8" fill="#E8F0F1"/>
<path d="M38.771 25.922C37.9352 25.922 37.5648 25.3236 37.5648 24.0604V23.7754C37.5648 22.5217 37.9352 21.9043 38.752 21.9043C39.5783 21.9043 39.9392 22.5312 39.9392 23.7754V24.0509C39.9392 25.3046 39.6068 25.922 38.771 25.922ZM38.714 27.4321C40.6516 27.4321 41.8863 26.1689 41.8863 24.0129V23.7469C41.8863 21.5434 40.5376 20.4321 38.752 20.4321C36.9569 20.4321 35.6177 21.6384 35.6177 23.7849V24.0698C35.6177 26.2069 36.8144 27.4321 38.714 27.4321Z" fill="#1D474F"/>
<path fill-rule="evenodd" clip-rule="evenodd" d="M40.8117 33.2L40.8975 35.4323C41.0459 39.291 37.9579 42.5001 34.0963 42.5001H23.7399C19.8784 42.5001 16.7903 39.291 16.9387 35.4323L17.3326 25.1914C17.4169 22.9987 19.219 21.2646 21.4133 21.2646H24.1548V21.2644C24.1548 18.6331 26.2879 16.5 28.9192 16.5C29.9325 16.5 30.8719 16.8164 31.6441 17.3557C31.3247 17.682 31.0287 18.0313 30.7587 18.4008C30.2283 18.0593 29.5969 17.8612 28.9192 17.8612C27.0397 17.8612 25.516 19.3849 25.516 21.2644V21.2646H29.3338C29.0738 22.1309 28.9341 23.0491 28.9341 24C28.9341 26.393 29.8188 28.5793 31.2791 30.2497C30.6671 30.8393 29.835 31.2018 28.9181 31.2018C27.0386 31.2018 25.515 29.6782 25.515 27.7987C25.515 27.4228 25.2103 27.1181 24.8344 27.1181C24.4585 27.1181 24.1538 27.4228 24.1538 27.7987C24.1538 30.43 26.2868 32.5631 28.9181 32.5631C30.213 32.5631 31.3871 32.0465 32.2459 31.2083C33.9083 32.6367 36.0704 33.5 38.4341 33.5C39.2551 33.5 40.0518 33.3958 40.8117 33.2Z" fill="white"/>
<defs>
<linearGradient id="paint0_linear_4896_50170" x1="43.8782" y1="4.35" x2="0.75844" y2="69.2088" gradientUnits="userSpaceOnUse">
<stop stop-color="#FFEEB3"/>
<stop offset="1" stop-color="#FFEEB3" stop-opacity="0"/>
</linearGradient>
</defs>
</svg>
