<svg width="24" height="24" viewBox="0 0 24 24" fill="none" xmlns="http://www.w3.org/2000/svg">
<path fill-rule="evenodd" clip-rule="evenodd" d="M21.2127 4.259C21.4938 3.95478 21.4751 3.48028 21.1709 3.19917C20.8666 2.91805 20.3921 2.93679 20.111 3.24101L4.72467 19.8921C4.44356 20.1964 4.46229 20.6709 4.76651 20.952C5.07073 21.2331 5.54523 21.2144 5.82634 20.9101L8.30951 18.2228L10.8252 19.9527C11.3134 20.2961 11.9589 20.2948 12.4459 19.9488L14.5347 18.4649C15.7541 17.5987 17.1582 16.5265 18.2602 15.2268C19.3705 13.9174 20.2656 12.2684 20.2656 10.2691C20.2656 8.9045 19.7427 7.68251 18.8999 6.76187L21.2127 4.259ZM17.877 7.86891L9.33809 17.1097L11.632 18.687L13.666 17.2421C14.868 16.3882 16.1422 15.4054 17.1161 14.2567C18.089 13.1094 18.7656 11.7925 18.7656 10.2691C18.7656 9.34567 18.4309 8.51547 17.877 7.86891ZM4.5 10.2691C4.5 8.16059 6.26741 6.5 8.3896 6.5C9.42909 6.5 10.3843 7.01393 11.1003 7.73587C11.2411 7.87787 11.4328 7.95775 11.6328 7.95775C11.8328 7.95775 12.0245 7.87787 12.1653 7.73587C12.8813 7.01393 13.8365 6.5 14.876 6.5C14.9497 6.5 15.023 6.50202 15.0958 6.506L15.129 6.50471C15.2066 6.50169 15.28 6.46868 15.3338 6.41262L16.0563 5.65953C16.2094 5.49995 16.1427 5.23635 15.9304 5.17467C15.6452 5.09184 15.3083 5.00383 15.1778 5.00824C15.0223 5.01349 14.9835 5.00871 14.9497 5.00455C14.9304 5.00217 14.9127 5 14.876 5C13.6107 5 12.4972 5.50889 11.6328 6.20068C10.7685 5.50889 9.65494 5 8.3896 5C5.50127 5 3 7.27122 3 10.2691C3 12.2684 3.89514 13.9174 5.00541 15.2268C5.23283 15.495 5.47229 15.7527 5.71935 16L6.03735 16.3184C6.15444 16.4356 6.34439 16.4358 6.46162 16.3187L7.0984 15.6827C7.21563 15.5656 7.21574 15.3756 7.09866 15.2584L6.78065 14.94C6.55897 14.7181 6.3476 14.4904 6.1495 14.2567C5.17664 13.1094 4.5 11.7925 4.5 10.2691Z" fill="#1a1a1a"/>
</svg>
