<svg width="27" height="26" viewBox="0 0 27 26" fill="current" xmlns="http://www.w3.org/2000/svg">
<path d="M18.9304 3.48926C19.0985 3.31813 19.0052 3.02847 18.7685 3.00624C18.5232 2.9832 18.2749 2.97143 18.0243 2.97143C15.9322 2.97143 14.0913 3.97003 12.7703 5.26215C11.4492 3.97003 9.60831 2.97143 7.51622 2.97143C3.45767 2.97143 0 6.06068 0 10.0728C0 12.8212 1.15134 15.2381 2.74644 17.2811C3.04036 17.6576 3.35099 18.0235 3.67469 18.3788C3.84103 18.5614 4.12256 18.5634 4.29553 18.3874L5.225 17.4412C5.39378 17.2693 5.39582 16.992 5.23417 16.8132C4.96316 16.5135 4.70437 16.2072 4.46024 15.8945C3.05872 14.0994 2.18919 12.158 2.18919 10.0728C2.18919 7.47181 4.48164 5.2 7.51622 5.2C9.25903 5.2 10.8864 6.25994 11.9025 7.60525C12.1097 7.87958 12.4303 8.04034 12.7703 8.04034C13.1102 8.04034 13.4308 7.87958 13.638 7.60525C14.45 6.53025 15.6522 5.63746 16.9918 5.32209C17.1055 5.29532 17.2111 5.2394 17.2937 5.15538L18.9304 3.48926Z" fill="#1a1a1a"/>
<path fill-rule="evenodd" clip-rule="evenodd" d="M1.82869 24.0483L1.78006 24.0978C1.35259 24.5329 1.35259 25.2385 1.78006 25.6736C2.20752 26.1088 2.90058 26.1088 3.32805 25.6736L7.29374 21.6366C7.66841 21.9216 8.04376 22.1955 8.41602 22.458C9.17776 22.9952 9.94838 23.4908 10.6537 23.8564C11.3159 24.1998 12.0774 24.5143 12.7703 24.5143C13.4631 24.5143 14.2246 24.1998 14.8869 23.8564C15.5922 23.4908 16.3628 22.9952 17.1245 22.458C19.1188 21.0515 21.2018 19.3206 22.7941 17.2811C24.3892 15.2381 25.5405 12.8212 25.5405 10.0728C25.5405 8.14701 24.7439 6.43382 23.4666 5.17284L26.6794 1.9022C27.1069 1.46705 27.1069 0.761522 26.6794 0.326367C26.265 -0.095497 25.601 -0.108383 25.1713 0.287709L1.86859 24.0096C1.85553 24.0229 1.84223 24.0358 1.82869 24.0483ZM21.9178 6.74946L8.85891 20.0433C9.1256 20.2423 9.39396 20.4366 9.66271 20.6261C10.385 21.1355 11.0652 21.5689 11.6471 21.8706C12.2721 22.1946 12.634 22.2857 12.7703 22.2857C12.9065 22.2857 13.2685 22.1946 13.8934 21.8706C14.4753 21.5689 15.1556 21.1355 15.8778 20.6261C17.7865 19.28 19.676 17.6931 21.0803 15.8945C22.4818 14.0994 23.3514 12.158 23.3514 10.0728C23.3514 8.81475 22.815 7.63368 21.9178 6.74946Z" fill="#1a1a1a"/>
</svg>
