<svg width="12" height="12" viewBox="0 0 12 12" fill="none" xmlns="http://www.w3.org/2000/svg">
<path d="M3.91846 8.24711C4.05952 8.34643 4.22792 8.39954 4.40044 8.39911C4.57296 8.39868 4.74109 8.34473 4.88166 8.24471C5.02406 8.14071 5.13206 7.99671 5.19126 7.83031L5.54886 6.73191C5.6404 6.45648 5.79484 6.20616 5.99994 6.00078C6.20503 5.79541 6.45515 5.64063 6.73046 5.54871L7.84326 5.18871C8.00778 5.12914 8.14947 5.01946 8.24836 4.8751C8.34724 4.73075 8.39834 4.559 8.39445 4.38407C8.39057 4.20914 8.33189 4.03983 8.22669 3.90002C8.12149 3.7602 7.97507 3.65691 7.80806 3.60471L6.70806 3.24631C6.43245 3.15493 6.18193 3.00056 5.97641 2.79544C5.77088 2.59033 5.616 2.34014 5.52406 2.06471L5.16246 0.954311C5.10423 0.790721 4.99646 0.649347 4.85415 0.549856C4.71184 0.450365 4.54205 0.397705 4.36841 0.399201C4.19478 0.400697 4.02593 0.456275 3.88535 0.558204C3.74477 0.660132 3.63945 0.803342 3.58406 0.967911L3.21846 2.08791C3.12689 2.35592 2.9756 2.59961 2.77603 2.80056C2.57646 3.00152 2.33382 3.15449 2.06646 3.24791L0.954457 3.60551C0.790933 3.66386 0.649634 3.77168 0.550175 3.91399C0.450717 4.0563 0.398034 4.22605 0.399442 4.39966C0.400849 4.57328 0.456276 4.74215 0.558028 4.88283C0.65978 5.02351 0.802809 5.12902 0.967257 5.18471L2.06646 5.54071C2.34322 5.63275 2.59457 5.78838 2.80032 5.99511C3.00608 6.20184 3.16052 6.45391 3.25126 6.73111L3.61286 7.84391C3.67046 8.00711 3.77766 8.14791 3.91846 8.24711ZM8.82806 11.4807C8.90989 11.5382 9.00399 11.5759 9.1029 11.5908C9.20182 11.6057 9.30285 11.5974 9.39799 11.5665C9.49314 11.5356 9.57979 11.483 9.6511 11.4129C9.72241 11.3427 9.77642 11.2569 9.80886 11.1623L10.0073 10.5527C10.05 10.4263 10.1211 10.3113 10.2153 10.2167C10.3097 10.1207 10.4249 10.0503 10.5513 10.0087L11.1689 9.80711C11.2963 9.76313 11.4066 9.68002 11.484 9.56964C11.5614 9.45926 11.602 9.32725 11.6 9.19245C11.5979 9.05764 11.5534 8.92692 11.4727 8.81894C11.3919 8.71096 11.2792 8.63122 11.1505 8.59111L10.5393 8.39111C10.4127 8.34906 10.2977 8.27816 10.2033 8.18403C10.1089 8.08989 10.0377 7.9751 9.99526 7.84871L9.79366 7.23031C9.75037 7.10312 9.66815 6.99278 9.55865 6.91493C9.44915 6.83707 9.31792 6.79565 9.18357 6.79654C9.04922 6.79742 8.91855 6.84057 8.81009 6.91986C8.70163 6.99915 8.62087 7.11056 8.57926 7.23831L8.38166 7.84791C8.34093 7.97338 8.27171 8.08771 8.17941 8.18195C8.08711 8.27619 7.97425 8.34778 7.84966 8.39111L7.23126 8.59271C7.10401 8.63584 6.99357 8.71791 6.91557 8.82731C6.83758 8.9367 6.79599 9.06787 6.7967 9.20222C6.7974 9.33657 6.84037 9.46729 6.91952 9.57586C6.99866 9.68442 7.10997 9.76533 7.23766 9.80711L7.84806 10.0047C7.97606 10.0479 8.09126 10.1191 8.18566 10.2135C8.28086 10.3087 8.35126 10.4239 8.39206 10.5511L8.59446 11.1703C8.63828 11.2955 8.71991 11.4039 8.82806 11.4807Z" fill="#1D474F"/>
</svg>
