<svg width="24" height="24" viewBox="0 0 24 24" fill="none" xmlns="http://www.w3.org/2000/svg">
<path d="M12.001 10.4448L12.417 9.82079C12.1651 9.65284 11.8369 9.65284 11.585 9.82079L12.001 10.4448ZM11.585 9.82079L3.50701 15.2061L4.33906 16.4542L12.417 11.0689L11.585 9.82079ZM4.31121 17.8621H19.6908V16.3621H4.31121V17.8621ZM20.4949 15.2061L12.417 9.82079L11.585 11.0689L19.6629 16.4542L20.4949 15.2061ZM19.6908 17.8621C21.1252 17.8621 21.6885 16.0018 20.4949 15.2061L19.6629 16.4542C19.6667 16.4567 19.6633 16.4551 19.6577 16.4477C19.6523 16.4406 19.6479 16.432 19.6451 16.4233C19.6398 16.4071 19.6424 16.3987 19.6427 16.3978C19.6429 16.3969 19.6455 16.3885 19.6588 16.3779C19.6659 16.3723 19.6744 16.3676 19.6829 16.3646C19.6917 16.3616 19.6953 16.3621 19.6908 16.3621V17.8621ZM3.50701 15.2061C2.3135 16.0018 2.87679 17.8621 4.31121 17.8621V16.3621C4.30666 16.3621 4.3103 16.3616 4.31904 16.3646C4.32754 16.3676 4.33601 16.3723 4.34315 16.3779C4.35646 16.3885 4.35901 16.3969 4.35927 16.3978C4.35954 16.3987 4.36211 16.4071 4.35688 16.4233C4.35408 16.432 4.34964 16.4406 4.34421 16.4477C4.33862 16.4551 4.33528 16.4567 4.33906 16.4542L3.50701 15.2061Z" fill="#1a1a1a"/>
<path d="M12.0008 9.33366V8.58366C11.5866 8.58366 11.2508 8.91945 11.2508 9.33366H12.0008ZM9.58398 7.66683C9.58398 8.08104 9.91977 8.41683 10.334 8.41683C10.7482 8.41683 11.084 8.08104 11.084 7.66683H9.58398ZM11.2508 10.4449C11.2508 10.8591 11.5866 11.1949 12.0008 11.1949C12.415 11.1949 12.7508 10.8591 12.7508 10.4449H11.2508ZM12.9176 7.66683C12.9176 8.17318 12.5072 8.58366 12.0008 8.58366V10.0837C13.3356 10.0837 14.4176 9.00161 14.4176 7.66683H12.9176ZM11.084 7.66683C11.084 7.16048 11.4945 6.75 12.0008 6.75V5.25C10.666 5.25 9.58398 6.33205 9.58398 7.66683H11.084ZM12.0008 6.75C12.5072 6.75 12.9176 7.16048 12.9176 7.66683H14.4176C14.4176 6.33205 13.3356 5.25 12.0008 5.25V6.75ZM11.2508 9.33366V10.4449H12.7508V9.33366H11.2508Z" fill="#4A6C72"/>
</svg>
