<svg width="20" height="20" viewBox="0 0 20 20" fill="none" xmlns="http://www.w3.org/2000/svg">
<path d="M7.48023 16.3004H4.27334C4.12107 16.3004 3.97504 16.2399 3.86737 16.1322C3.75971 16.0246 3.69922 15.8785 3.69922 15.7263V12.5194C3.69922 12.444 3.71407 12.3693 3.74292 12.2997C3.77177 12.23 3.81406 12.1667 3.86737 12.1134L12.4791 3.50165C12.5868 3.39398 12.7328 3.3335 12.8851 3.3335C13.0374 3.3335 13.1834 3.39398 13.2911 3.50165L16.498 6.70855C16.6056 6.81621 16.6661 6.96224 16.6661 7.11451C16.6661 7.26677 16.6056 7.4128 16.498 7.52047L7.88619 16.1322C7.83288 16.1855 7.76959 16.2278 7.69994 16.2567C7.63028 16.2855 7.55563 16.3004 7.48023 16.3004Z" stroke="#1D474F" stroke-linecap="round" stroke-linejoin="round"/>
<path d="M10.5879 5.39209L14.6067 9.41091" stroke="#1D474F" stroke-linecap="round" stroke-linejoin="round"/>
<path d="M7.68195 16.2635L3.73633 12.3179" stroke="#1D474F" stroke-linecap="round" stroke-linejoin="round"/>
</svg>
