<svg width="24" height="24" viewBox="0 0 24 24" fill="none" xmlns="http://www.w3.org/2000/svg">
<path d="M8.6396 4.97852C6.13434 4.97852 4 6.94442 4 9.49764C4 11.259 4.78589 12.7419 5.82745 13.9703C6.86544 15.1945 8.2046 16.222 9.41524 17.082L11.5041 18.5659C11.7328 18.7284 12.0328 18.7284 12.2616 18.5659L14.3504 17.082C15.561 16.222 16.9002 15.1945 17.9382 13.9703C18.9797 12.7419 19.7656 11.259 19.7656 9.49764C19.7656 6.94442 17.6313 4.97852 15.126 4.97852C13.8346 4.97852 12.6983 5.614 11.8828 6.43626C11.0674 5.614 9.931 4.97852 8.6396 4.97852Z" stroke="#1a1a1a" stroke-width="1.43053" stroke-linecap="round" stroke-linejoin="round"/>
</svg>
