<svg width="12" height="15" viewBox="0 0 12 15" fill="none" xmlns="http://www.w3.org/2000/svg">
<path d="M2.25467 3.97875C3.31716 3.12746 4.63854 2.66458 6 2.66675C7.41667 2.66675 8.71867 3.15741 9.74534 3.97875L10.714 3.01008L11.6567 3.95275L10.688 4.92141C11.3931 5.80418 11.8347 6.8681 11.9619 7.99074C12.089 9.11338 11.8967 10.2491 11.4069 11.2672C10.9171 12.2854 10.1497 13.1445 9.19321 13.7458C8.23668 14.3471 7.12982 14.6661 6 14.6661C4.87018 14.6661 3.76332 14.3471 2.8068 13.7458C1.85027 13.1445 1.08296 12.2854 0.593151 11.2672C0.103347 10.2491 -0.0890385 9.11338 0.0381335 7.99074C0.165306 6.8681 0.606867 5.80418 1.312 4.92141L0.343337 3.95341L1.286 3.01075L2.25467 3.97875ZM6 13.3334C6.61284 13.3334 7.21967 13.2127 7.78586 12.9782C8.35205 12.7437 8.86649 12.3999 9.29983 11.9666C9.73317 11.5332 10.0769 11.0188 10.3114 10.4526C10.546 9.88642 10.6667 9.27958 10.6667 8.66675C10.6667 8.05391 10.546 7.44708 10.3114 6.88089C10.0769 6.31471 9.73317 5.80026 9.29983 5.36692C8.86649 4.93358 8.35205 4.58983 7.78586 4.35531C7.21967 4.12079 6.61284 4.00008 6 4.00008C4.76233 4.00008 3.57534 4.49175 2.70017 5.36692C1.825 6.24209 1.33334 7.42907 1.33334 8.66675C1.33334 9.90442 1.825 11.0914 2.70017 11.9666C3.57534 12.8417 4.76233 13.3334 6 13.3334ZM6.66667 8.00008H8.66667L5.33334 12.3334V9.33341H3.33334L6.66667 4.99675V8.00008ZM3.33334 0.666748H8.66667V2.00008H3.33334V0.666748Z" fill="#1D474F"/>
</svg>
