<svg width="59" height="59" viewBox="0 0 59 59" fill="none" xmlns="http://www.w3.org/2000/svg">
<ellipse cx="29.5" cy="29.5" rx="29.2437" ry="29" fill="url(#paint0_linear_493_12106)"/>
<circle cx="38.7521" cy="24.432" r="8" fill="#F2F2F2"/>
<path d="M38.7711 26.4218C37.9353 26.4218 37.5649 25.8235 37.5649 24.5602V24.2753C37.5649 23.0216 37.9353 22.4042 38.7521 22.4042C39.5784 22.4042 39.9394 23.0311 39.9394 24.2753V24.5507C39.9394 25.8045 39.6069 26.4218 38.7711 26.4218ZM38.7141 27.932C40.6517 27.932 41.8865 26.6688 41.8865 24.5127V24.2468C41.8865 22.0433 40.5377 20.932 38.7521 20.932C36.957 20.932 35.6178 22.1382 35.6178 24.2848V24.5697C35.6178 26.7068 36.8145 27.932 38.7141 27.932Z" fill="#1A1A1A"/>
<path fill-rule="evenodd" clip-rule="evenodd" d="M40.8116 33.7L40.8975 35.9323C41.0459 39.791 37.9578 43.0001 34.0963 43.0001H23.7399C19.8783 43.0001 16.7903 39.791 16.9387 35.9323L17.3325 25.6914C17.4169 23.4987 19.219 21.7646 21.4133 21.7646H24.1547V21.7644C24.1547 19.1331 26.2878 17 28.9191 17C29.9324 17 30.8719 17.3164 31.6441 17.8557C31.3247 18.182 31.0286 18.5313 30.7586 18.9008C30.2282 18.5593 29.5968 18.3612 28.9191 18.3612C27.0396 18.3612 25.516 19.8849 25.516 21.7644V21.7646H29.3337C29.0737 22.6309 28.934 23.5491 28.934 24.5C28.934 26.893 29.8188 29.0793 31.279 30.7497C30.6671 31.3393 29.8349 31.7018 28.9181 31.7018C27.0386 31.7018 25.5149 30.1782 25.5149 28.2987C25.5149 27.9228 25.2102 27.6181 24.8343 27.6181C24.4584 27.6181 24.1537 27.9228 24.1537 28.2987C24.1537 30.93 26.2868 33.0631 28.9181 33.0631C30.2129 33.0631 31.3871 32.5465 32.2458 31.7083C33.9082 33.1367 36.0703 34 38.434 34C39.255 34 40.0517 33.8958 40.8116 33.7Z" fill="#1A1A1A"/>
<defs>
<linearGradient id="paint0_linear_493_12106" x1="43.8781" y1="4.85" x2="0.758379" y2="69.7088" gradientUnits="userSpaceOnUse">
<stop stop-color="#F2D4BD"/>
<stop offset="1" stop-color="#FAF4EE" stop-opacity="0"/>
</linearGradient>
</defs>
</svg>
