<svg width="59" height="58" viewBox="0 0 59 58" fill="none" xmlns="http://www.w3.org/2000/svg">
<ellipse cx="29.7437" cy="29" rx="29.2437" ry="29" fill="url(#paint0_linear_493_12080)"/>
<path fill-rule="evenodd" clip-rule="evenodd" d="M28.157 17.5117C27.1823 17.5632 26.2218 17.7749 25.3156 18.1392C24.244 18.5701 23.2694 19.206 22.448 20.0103C21.6266 20.8145 20.9747 21.7712 20.5298 22.8251C20.0849 23.8791 19.8559 25.0095 19.8559 26.1512V28.0738C19.8559 32.3773 18.9402 34.8746 18.1337 36.2397C18.047 36.3857 18.0009 36.5517 18 36.7209C17.9992 36.8902 18.0436 37.0566 18.1289 37.2035C18.2142 37.3503 18.3372 37.4724 18.4857 37.5572C18.6341 37.6421 18.8026 37.6868 18.9741 37.6869H38.2759C38.4474 37.6868 38.6159 37.6421 38.7643 37.5573C38.9127 37.4724 39.0358 37.3504 39.121 37.2036C39.2063 37.0568 39.2508 36.8903 39.25 36.7211C39.2492 36.5519 39.2031 36.3859 39.1164 36.2399C38.601 35.3671 38.0409 34.0313 37.704 32.0562C37.1905 32.1421 36.663 32.1869 36.125 32.1869C30.8783 32.1869 26.625 27.9336 26.625 22.6869C26.625 20.778 27.188 19.0006 28.157 17.5117ZM23.3125 41.9369C23.3125 41.3501 23.7882 40.8744 24.375 40.8744H32.875C33.4618 40.8744 33.9375 41.3501 33.9375 41.9369C33.9375 42.5237 33.4618 42.9994 32.875 42.9994H24.375C23.7882 42.9994 23.3125 42.5237 23.3125 41.9369Z" fill="#1A1A1A"/>
<circle cx="36.7437" cy="22.2559" r="8" fill="#F2F2F2"/>
<path d="M36.7627 24.2457C35.9269 24.2457 35.5565 23.6473 35.5565 22.3841V22.0991C35.5565 20.8454 35.9269 20.228 36.7437 20.228C37.57 20.228 37.9309 20.8549 37.9309 22.0991V22.3746C37.9309 23.6283 37.5985 24.2457 36.7627 24.2457ZM36.7057 25.7559C38.6433 25.7559 39.878 24.4926 39.878 22.3366V22.0706C39.878 19.8671 38.5293 18.7559 36.7437 18.7559C34.9486 18.7559 33.6094 19.9621 33.6094 22.1086V22.3936C33.6094 24.5306 34.8061 25.7559 36.7057 25.7559Z" fill="#1A1A1A"/>
<defs>
<linearGradient id="paint0_linear_493_12080" x1="44.1219" y1="4.35" x2="1.00209" y2="69.2088" gradientUnits="userSpaceOnUse">
<stop stop-color="#F2D4BD"/>
<stop offset="1" stop-color="#FAF4EE" stop-opacity="0"/>
</linearGradient>
</defs>
</svg>
