<svg width="36" height="24" viewBox="0 0 36 24" fill="none" xmlns="http://www.w3.org/2000/svg">
<path d="M15.3823 12.8687H1V17.6582H15.3823V12.8687Z" fill="#84B740"/>
<path d="M15.3823 6.33334H1V11.1271H15.3823V6.33334Z" fill="#259BD6"/>
<path d="M29.7647 16.6849L29.7007 16.6977C29.4786 16.7404 29.3975 16.7575 29.2352 16.7575C28.8594 16.7575 28.4153 16.5654 28.4153 15.6604C28.4153 15.1951 28.4922 14.5762 29.1925 14.5762H29.1968C29.3164 14.5847 29.453 14.5975 29.7092 14.6743L29.7647 14.6914V16.6849ZM29.88 12.1729L29.7647 12.1942V13.8676L29.6623 13.8377L29.6324 13.8291C29.5171 13.795 29.2523 13.7182 28.9961 13.7182C27.5954 13.7182 27.3008 14.7768 27.3008 15.6647C27.3008 16.8812 27.984 17.5813 29.1754 17.5813C29.6793 17.5813 30.0508 17.5301 30.4266 17.4063C30.7725 17.2953 30.8964 17.1374 30.8964 16.8001V11.9979C30.5633 12.0576 30.2174 12.1174 29.88 12.1729Z" fill="#27292D"/>
<path d="M33.9283 16.7148L33.8686 16.7318L33.655 16.7873C33.4543 16.8386 33.275 16.8684 33.1383 16.8684C32.8095 16.8684 32.6131 16.7062 32.6131 16.4288C32.6131 16.2495 32.6942 15.9464 33.2323 15.9464H33.9283V16.7148ZM33.4373 13.6968C33.006 13.6968 32.5618 13.7736 32.011 13.9444L31.6523 14.0511L31.7718 14.8622L32.122 14.7469C32.4893 14.6274 32.9462 14.5505 33.2878 14.5505C33.4415 14.5505 33.9113 14.5505 33.9113 15.0585V15.2805H33.2579C32.0665 15.2805 31.5156 15.6604 31.5156 16.4757C31.5156 17.1715 32.0238 17.5898 32.8778 17.5898C33.1426 17.5898 33.5099 17.5386 33.8259 17.4618L33.8429 17.4575L33.86 17.4618L33.9668 17.4789C34.2999 17.5386 34.6457 17.5984 34.9831 17.6624V14.9988C34.9831 14.1365 34.4621 13.6968 33.4373 13.6968Z" fill="#27292D"/>
<path d="M25.6305 16.7148L25.5707 16.7318L25.3572 16.7873C25.1565 16.8386 24.9814 16.8684 24.8405 16.8684C24.5117 16.8684 24.3152 16.7062 24.3152 16.4288C24.3152 16.2495 24.3964 15.9464 24.9302 15.9464H25.6262L25.6305 16.7148ZM25.1437 13.6968C24.7081 13.6968 24.2683 13.7736 23.7174 13.9444L23.3587 14.0511L23.4783 14.8622L23.8284 14.7469C24.1957 14.6274 24.6526 14.5505 24.9942 14.5505C25.1479 14.5505 25.6177 14.5505 25.6177 15.0585V15.2805H24.9643C23.7729 15.2805 23.2178 15.6604 23.2178 16.4757C23.2178 17.1715 23.7259 17.5898 24.5843 17.5898C24.849 17.5898 25.2163 17.5386 25.5323 17.4618L25.5494 17.4575L25.5664 17.4618L25.6689 17.4789C26.0063 17.5386 26.3479 17.5984 26.6852 17.6667V15.003C26.6895 14.1322 26.1685 13.6968 25.1437 13.6968Z" fill="#27292D"/>
<path d="M21.1354 13.7054C20.5931 13.7054 20.1447 13.8847 19.9782 13.9615L19.9355 13.9829L19.897 13.953C19.6664 13.7865 19.3291 13.7011 18.8594 13.7011C18.4451 13.7011 18.0565 13.7609 17.6338 13.8847C17.2708 13.9957 17.1299 14.1707 17.1299 14.4994V17.5429H18.2658V14.7299L18.3213 14.7128C18.5519 14.636 18.6885 14.6232 18.8209 14.6232C19.1497 14.6232 19.3163 14.7982 19.3163 15.1397V17.5472H20.4351V15.0927C20.4351 14.9476 20.4052 14.8622 20.4009 14.8451L20.3625 14.7726L20.4394 14.7384C20.6102 14.6616 20.7981 14.6232 20.9945 14.6232C21.2208 14.6232 21.4898 14.7128 21.4898 15.1397V17.5472H22.6044V15.0287C22.6044 14.1365 22.1261 13.7054 21.1354 13.7054Z" fill="#27292D"/>
<path d="M33.0918 9.45802C32.9252 9.45802 32.6476 9.44094 32.4299 9.39826L32.3658 9.38545V7.74201C32.3658 7.60541 32.3402 7.52004 32.3359 7.50723L32.3018 7.43893L32.3743 7.40905C32.3914 7.40051 32.4085 7.39625 32.4299 7.38771L32.4427 7.37917C32.4683 7.37063 32.4939 7.3621 32.5195 7.35356C32.5323 7.34929 32.5409 7.34502 32.5494 7.34502C32.8014 7.27672 33.032 7.28526 33.1345 7.27672H33.1387C33.8348 7.27672 33.9159 7.89568 33.9159 8.36097C33.9116 9.26593 33.4633 9.45802 33.0918 9.45802ZM33.0875 6.33334C33.0789 6.33334 33.0661 6.33334 33.0576 6.33334C32.4042 6.33334 31.7338 6.51263 31.4947 6.86266C31.3666 7.03341 31.294 7.24684 31.2897 7.49869V9.19336C31.2897 9.3385 31.2598 9.39399 31.2555 9.4068L31.2171 9.47936H29.1545V8.30121H29.1503C29.1247 7.05902 28.3902 6.37603 27.3269 6.37603H27.203H26.2892C26.2465 6.67911 26.2123 6.89254 26.1696 7.19562H27.203C27.7454 7.19562 28.0315 7.65664 28.0315 8.36524V9.55193L27.9589 9.51351C27.9461 9.50924 27.8564 9.47936 27.7155 9.47936H25.9305C25.8963 9.7056 25.8536 10.0001 25.8066 10.2947H31.294C31.4819 10.2563 31.6996 10.2221 31.8875 10.1922C32.1651 10.3288 32.6818 10.4014 33.0362 10.4014C34.2277 10.4014 35.0006 9.60315 35.0006 8.37377C34.9963 7.1572 34.249 6.35896 33.0875 6.33334Z" fill="#27292D"/>
<path d="M23.467 10.7941H23.5182C24.7096 10.7941 25.2648 10.4014 25.2648 9.43242C25.2648 8.73662 24.7566 8.18169 23.9026 8.18169H22.8051C22.4763 8.18169 22.2799 7.99387 22.2799 7.67799C22.2799 7.46455 22.361 7.1999 22.899 7.1999H25.2989C25.3502 6.88828 25.3758 6.69192 25.4228 6.38031H22.9289C21.7674 6.38031 21.1824 6.86694 21.1824 7.67799C21.1824 8.4805 21.6906 8.89883 22.5446 8.89883H23.6421C23.9709 8.89883 24.1673 9.15922 24.1673 9.43242C24.1673 9.6117 24.0862 9.98308 23.5524 9.98308H23.3688L19.8543 9.97454H19.2138C18.6715 9.97454 18.2914 9.66719 18.2914 8.95432V8.46343C18.2914 7.72068 18.5861 7.25966 19.2138 7.25966H20.2557C20.3027 6.94378 20.3326 6.74315 20.3753 6.44434H19.0771H18.9533C17.89 6.44434 17.1555 7.15721 17.1299 8.3994V8.44635V8.95432C17.1555 10.1965 17.89 10.7899 18.9533 10.7899H19.0771H19.991L21.8955 10.7941H23.0314H23.467Z" fill="#27292D"/>
</svg>
