<svg width="27" height="18" viewBox="0 0 27 18" fill="none" xmlns="http://www.w3.org/2000/svg">
<path d="M7.64625 6.38147C7.87042 6.11382 8.02254 5.75443 7.98242 5.38718C7.65427 5.40275 7.25383 5.59384 7.02199 5.86171C6.81383 6.0911 6.62959 6.46554 6.67762 6.81739C7.04598 6.84789 7.414 6.64162 7.64625 6.38147Z" fill="#1D474F"/>
<path d="M7.97931 6.88609C7.44436 6.85567 6.98952 7.17592 6.73405 7.17592C6.47845 7.17592 6.08725 6.90141 5.66413 6.90881C5.11342 6.91654 4.60242 7.21378 4.32295 7.68655C3.74814 8.63231 4.17126 10.0352 4.73023 10.8055C5.00168 11.1865 5.32882 11.6061 5.75988 11.5911C6.16716 11.5758 6.3268 11.3393 6.82187 11.3393C7.31657 11.3393 7.46037 11.5911 7.8915 11.5834C8.33859 11.5758 8.6181 11.2022 8.88955 10.8207C9.20095 10.3863 9.32843 9.96686 9.33645 9.94384C9.32843 9.93621 8.47433 9.62342 8.46641 8.68552C8.45834 7.90021 9.13697 7.52667 9.16891 7.5035C8.78568 6.96242 8.1869 6.90141 7.97931 6.88609Z" fill="#1D474F"/>
<path d="M12.6372 5.8233C13.7999 5.8233 14.6096 6.5884 14.6096 7.70232C14.6096 8.82022 13.7833 9.58929 12.6081 9.58929H11.3207V11.5436H10.3906V5.8233H12.6372V5.8233ZM11.3207 8.844H12.388C13.1977 8.844 13.6586 8.4278 13.6586 7.70629C13.6586 6.98486 13.1977 6.57257 12.3921 6.57257H11.3207V8.844Z" fill="#1D474F"/>
<path d="M14.8535 10.3584C14.8535 9.62889 15.439 9.18097 16.4773 9.12545L17.6731 9.05809V8.73702C17.6731 8.27319 17.3451 7.9957 16.797 7.9957C16.2778 7.9957 15.9539 8.23351 15.8751 8.60619H15.028C15.0778 7.85295 15.7505 7.29797 16.8302 7.29797C17.8891 7.29797 18.5659 7.83314 18.5659 8.66958V11.5436H17.7063V10.8578H17.6856C17.4324 11.3216 16.88 11.615 16.307 11.615C15.4515 11.615 14.8535 11.1075 14.8535 10.3584ZM17.6731 9.98177V9.65275L16.5976 9.71613C16.0619 9.75184 15.7588 9.97779 15.7588 10.3346C15.7588 10.6992 16.0744 10.9371 16.5561 10.9371C17.1831 10.9371 17.6731 10.5248 17.6731 9.98177Z" fill="#1D474F"/>
<path d="M19.3762 13.0778V12.384C19.4425 12.3999 19.592 12.3999 19.6668 12.3999C20.0821 12.3999 20.3063 12.2334 20.4433 11.8053C20.4433 11.7973 20.5223 11.5516 20.5223 11.5476L18.9443 7.37329H19.9159L21.0206 10.7667H21.0371L22.1419 7.37329H23.0886L21.4524 11.7616C21.0788 12.7725 20.6469 13.0976 19.7416 13.0976C19.6668 13.0976 19.4425 13.0896 19.3762 13.0778Z" fill="#1D474F"/>
<rect x="0.5" y="1" width="26" height="16" rx="3" stroke="#1D474F"/>
</svg>
