<svg width="36" height="24" viewBox="0 0 36 24" fill="none" xmlns="http://www.w3.org/2000/svg">
<path d="M22.751 13.9547V8.98397H23.5972V9.3822C23.8532 9.0622 24.2372 8.88442 24.7065 8.88442C25.6808 8.88442 26.3706 9.65953 26.3706 10.7689C26.3706 11.8782 25.6666 12.6676 24.7065 12.6676C24.2301 12.6676 23.8532 12.4827 23.5972 12.1627V13.9547H22.751ZM23.5972 10.3138V11.2311C23.775 11.6009 24.095 11.8711 24.5572 11.8711C25.119 11.8711 25.4888 11.4515 25.4888 10.7689C25.4888 10.0933 25.1119 9.68087 24.5572 9.68087C24.095 9.68087 23.775 9.92976 23.5972 10.3138Z" fill="#04AA7D"/>
<path d="M26.918 11.5441C26.918 10.9397 27.2949 10.5201 27.9135 10.4419L29.35 10.257V10.0792C29.35 9.8659 29.2433 9.75212 29.0371 9.75212H27.238V8.98411H29.0727C29.798 8.98411 30.1962 9.33967 30.1962 9.97256V12.561H29.3429V12.1272C29.094 12.4757 28.6886 12.6748 28.1624 12.6748C27.4158 12.6677 26.918 12.2126 26.918 11.5441ZM28.3686 11.9779C28.8024 11.9779 29.2007 11.7361 29.3429 11.3806V10.9326L28.2478 11.0819C27.942 11.1246 27.7784 11.281 27.7784 11.5441C27.7784 11.8215 27.9918 11.9779 28.3686 11.9779Z" fill="#04AA7D"/>
<path d="M30.8071 13.1868H31.4187C31.6533 13.1868 31.76 13.0873 31.8382 12.8739L31.9449 12.561L30.6436 8.98411H31.5253L32.336 11.473H32.3573L33.1325 8.98411H34L32.5778 13.0944C32.3858 13.6561 32.1298 13.9619 31.504 13.9619H30.8142L30.8071 13.1868Z" fill="#04AA7D"/>
<path d="M5.08624 16.4152C6.06759 16.4152 6.87115 16.1094 7.40448 15.5974C7.80271 15.2063 8.03738 14.6729 8.03738 14.0614C8.03738 13.5067 7.83116 13.0089 7.45426 12.6249C7.07737 12.248 6.52981 11.9636 5.84003 11.8356L4.71646 11.6151C4.24713 11.5298 3.98401 11.2951 3.98401 10.968C3.98401 10.5414 4.39646 10.2498 5.0578 10.2498C5.47025 10.2498 5.82581 10.3849 6.05336 10.6196C6.2027 10.7831 6.30225 10.9894 6.3307 11.2169L7.95915 10.8471C7.91649 10.3778 7.69604 9.96536 7.36182 9.63113C6.82848 9.1049 6.00359 8.77068 5.03647 8.77068C4.14046 8.77068 3.39379 9.06224 2.88178 9.53157C2.44089 9.94402 2.192 10.4987 2.192 11.1174C2.192 11.6578 2.36267 12.1129 2.71823 12.4614C3.07379 12.8169 3.58579 13.0729 4.25424 13.2436L5.37069 13.5067C5.93247 13.6418 6.17425 13.8481 6.17425 14.2107C6.17425 14.6658 5.76181 14.9289 5.08624 14.9289C4.60269 14.9289 4.20446 14.7654 3.96268 14.5023C3.79201 14.3316 3.68535 14.0898 3.67112 13.8267L2 14.1965C2.04267 14.6943 2.27733 15.1352 2.63289 15.4907C3.18045 16.0667 4.08357 16.4152 5.08624 16.4152ZM17.4668 16.4152C18.5548 16.4152 19.3868 16.0241 19.9557 15.4623C20.4108 15.0214 20.6881 14.5094 20.8375 13.9832L19.1237 13.4072C19.0526 13.6703 18.9032 13.9547 18.6686 14.1681C18.3912 14.4312 18.0072 14.6232 17.4668 14.6232C16.969 14.6232 16.4997 14.4312 16.1583 14.0969C15.817 13.7414 15.6108 13.2294 15.6108 12.5823C15.6108 11.9209 15.817 11.4231 16.1583 11.0676C16.4926 10.7263 16.9477 10.5556 17.4526 10.5556C17.9788 10.5556 18.3486 10.7263 18.6117 10.9965C18.8321 11.2169 18.9672 11.4943 19.0526 11.7787L20.7948 11.1956C20.6597 10.6836 20.3824 10.1716 19.977 9.74491C19.3939 9.16891 18.5406 8.76357 17.4099 8.76357C16.3717 8.76357 15.433 9.15468 14.7574 9.83735C14.0819 10.5271 13.6694 11.48 13.6694 12.5965C13.6694 13.7129 14.0961 14.6658 14.7859 15.3556C15.4543 16.0241 16.4072 16.4152 17.4668 16.4152ZM11.5432 16.4152C12.3041 16.4152 12.8516 16.1805 13.0792 15.9743V14.3885C12.9014 14.5236 12.553 14.6801 12.0979 14.6801C11.7707 14.6801 11.5361 14.6089 11.3654 14.4454C11.2161 14.2961 11.145 14.0472 11.145 13.7129V7H9.21072V8.9769H13.0792V10.8543H9.21072V14.1823C9.21072 14.8578 9.41694 15.3983 9.78672 15.7823C10.1921 16.1947 10.7965 16.4152 11.5432 16.4152Z" fill="#512D83"/>
</svg>
