<svg width="13" height="15" viewBox="0 0 13 15" fill="none" xmlns="http://www.w3.org/2000/svg">
<path d="M9.89408 10.4394L10.0114 10.5574L10.1301 10.4394C10.2694 10.3001 10.4347 10.1896 10.6167 10.1143C10.7987 10.0389 10.9938 10.0001 11.1907 10.0001C11.3877 10.0001 11.5828 10.0389 11.7648 10.1143C11.9468 10.1896 12.1121 10.3001 12.2514 10.4394C12.3907 10.5787 12.5012 10.7441 12.5766 10.9261C12.652 11.108 12.6908 11.3031 12.6908 11.5001C12.6908 11.6971 12.652 11.8921 12.5766 12.0741C12.5012 12.2561 12.3907 12.4215 12.2514 12.5607L10.0114 14.8001L7.77275 12.5607C7.49144 12.2794 7.33341 11.8979 7.33341 11.5001C7.33341 11.1023 7.49144 10.7207 7.77275 10.4394C8.05405 10.1581 8.43559 10.0001 8.83342 10.0001C9.23124 10.0001 9.61277 10.1581 9.89408 10.4394ZM6.00008 9.33342V9.66675C6.00008 10.219 5.54555 10.6544 5.01044 10.7911C4.32042 10.9673 3.68376 11.3262 3.17165 11.8383C2.57979 12.4302 2.19256 13.1884 2.0555 14.0031C1.99441 14.3662 1.70161 14.6667 1.33342 14.6667C0.965228 14.6667 0.66245 14.3671 0.708354 14.0018C0.851762 12.8605 1.36156 11.7894 2.17039 10.9549C3.13475 9.95998 4.44847 9.37938 5.83341 9.33608L6.00008 9.33342ZM6.00008 0.666748C8.21008 0.666748 10.0001 2.45675 10.0001 4.66675C10.0005 5.70177 9.59948 6.69661 8.88148 7.44209C8.16348 8.18757 7.18439 8.6256 6.15008 8.66408L6.00008 8.66675C3.79008 8.66675 2.00008 6.87675 2.00008 4.66675C1.99971 3.63173 2.40068 2.63689 3.11869 1.89141C3.83669 1.14593 4.81578 0.707896 5.85008 0.669415L6.00008 0.666748ZM6.00008 2.00008C4.52675 2.00008 3.33341 3.19341 3.33341 4.66675C3.33341 6.14008 4.52675 7.33342 6.00008 7.33342C7.47341 7.33342 8.66675 6.14008 8.66675 4.66675C8.66675 3.19341 7.47341 2.00008 6.00008 2.00008Z" fill="#1D474F"/>
</svg>
