<svg width="24" height="24" viewBox="0 0 24 24" fill="none" xmlns="http://www.w3.org/2000/svg">
<path fill-rule="evenodd" clip-rule="evenodd" d="M12.6956 4.25C12.6956 3.83579 12.3598 3.5 11.9456 3.5C11.5314 3.5 11.1956 3.83579 11.1956 4.25V5.25188C9.91255 5.33 8.61235 5.80738 7.89992 7.05083C7.33711 8.03313 7.26518 9.01568 7.63901 9.90007C7.99725 10.7476 8.7216 11.4035 9.55555 11.8792C10.0747 12.1754 10.6366 12.3858 11.1956 12.5683V17.1505C10.7442 17.095 10.2723 16.9926 9.86837 16.827C9.18704 16.5476 8.90722 16.1934 8.90722 15.75C8.90722 15.3358 8.57144 15 8.15722 15C7.74301 15 7.40722 15.3358 7.40722 15.75C7.40722 17.09 8.38003 17.8379 9.29931 18.2148C9.94646 18.4802 10.6709 18.6139 11.3044 18.6702V19.75C11.3044 20.1642 11.6402 20.5 12.0544 20.5C12.4686 20.5 12.8044 20.1642 12.8044 19.75V18.7028C14.0874 18.6247 15.3877 18.1473 16.1001 16.9038C16.6629 15.9215 16.7348 14.939 16.361 14.0546C16.0027 13.2071 15.2784 12.5512 14.4444 12.0754C13.8887 11.7584 13.2855 11.5485 12.6956 11.3666V6.81489C13.1313 6.8891 13.5529 7.02587 13.8953 7.2173C14.4312 7.51701 14.6572 7.87172 14.6572 8.24996C14.6572 8.66417 14.993 8.99996 15.4072 8.99996C15.8214 8.99996 16.1572 8.66417 16.1572 8.24996C16.1572 7.12819 15.4322 6.35814 14.6273 5.90807C14.0462 5.58312 13.3633 5.38393 12.6956 5.29876V4.25ZM11.1956 10.905C10.8674 10.7942 10.5376 10.6704 10.2025 10.52C9.58976 10.1521 9.19668 9.73251 9.02065 9.31606C8.85114 8.91504 8.84194 8.42396 9.20143 7.79652C9.55546 7.17861 10.2577 6.82676 11.1956 6.75379V10.905ZM13.8666 13.477C14.4399 13.8346 14.81 14.238 14.9794 14.6386C15.1489 15.0396 15.1581 15.5307 14.7986 16.1582C14.431 16.7997 13.688 17.1545 12.6956 17.208V13.0395C13.0686 13.1622 13.4436 13.2969 13.8258 13.4609C13.8394 13.4667 13.853 13.4721 13.8666 13.477Z" fill="#1a1a1a"/>
</svg>
