<svg width="15" height="13" viewBox="0 0 15 13" fill="none" xmlns="http://www.w3.org/2000/svg">
<path fill-rule="evenodd" clip-rule="evenodd" d="M7.65424 0.182284C7.54623 0.232294 7.44939 0.335171 7.40833 0.443531C7.3876 0.498207 7.37722 1.08413 7.37722 2.19773V3.86981L7.09291 3.88783C5.87625 3.96485 5.16908 4.07003 4.41914 4.28549C3.40453 4.57701 2.67389 4.9875 2.03896 5.62279C1.21004 6.45208 0.770277 7.43592 0.539007 8.97832C0.431988 9.69223 0.334564 11.606 0.390172 11.9023C0.434671 12.1396 0.695889 12.308 0.946522 12.261C1.12128 12.2282 1.20824 12.1208 1.46995 11.6142C2.07022 10.4526 2.58708 9.8655 3.426 9.39257C4.3048 8.89714 5.33754 8.66012 7.07766 8.55445L7.37585 8.53634L7.38384 10.257C7.39163 11.943 7.39303 11.9792 7.45193 12.0581C7.59213 12.2459 7.81979 12.3198 8.01204 12.24C8.15367 12.1812 14.287 6.50981 14.3361 6.39221C14.3842 6.2772 14.3865 6.16036 14.3433 6.0364C14.3197 5.9688 13.4706 5.16724 11.2304 3.09808C9.53619 1.53311 8.1197 0.232527 8.0827 0.207857C7.99052 0.146417 7.76129 0.13274 7.65424 0.182284ZM10.8181 3.99094C12.1253 5.19675 13.1947 6.1945 13.1947 6.20821C13.1947 6.22188 12.099 7.24436 10.7598 8.48035L8.32493 10.7276L8.31035 9.31562C8.29621 7.94677 8.29393 7.90114 8.23564 7.82311C8.10748 7.65153 8.03794 7.62318 7.7179 7.61213C7.05622 7.58927 5.76713 7.70588 5.02841 7.85539C3.49108 8.16656 2.30134 8.81605 1.54323 9.75804L1.36109 9.98435L1.38165 9.72191C1.40833 9.38181 1.50515 8.73915 1.57714 8.42428C1.83343 7.30341 2.36447 6.44292 3.14265 5.8875C3.44393 5.67245 4.04478 5.3751 4.43203 5.24942C5.22863 4.99082 6.14123 4.85794 7.42668 4.81338C8.0689 4.79113 8.09255 4.78469 8.23564 4.59308C8.29417 4.51472 8.29598 4.47471 8.30388 3.0961L8.31199 1.67961L8.37678 1.7391C8.41241 1.77181 9.51103 2.78513 10.8181 3.99094Z" fill="#1A1A1A"/>
</svg>
