<svg width="16" height="16" viewBox="0 0 16 16" fill="none" xmlns="http://www.w3.org/2000/svg">
<path d="M7.10395 1.63058C7.38643 0.789807 8.61333 0.789807 8.89487 1.63058L9.90237 4.63582C9.96393 4.81884 10.0836 4.97831 10.2442 5.09144C10.4049 5.20457 10.5983 5.26557 10.7969 5.26571H14.0567C14.9691 5.26571 15.3476 6.39769 14.6103 6.91804L11.9739 8.77486C11.8129 8.88809 11.693 9.04782 11.6315 9.23117C11.5699 9.41452 11.5698 9.61206 11.6311 9.79547L12.6386 12.8007C12.9211 13.6415 11.9277 14.3417 11.1886 13.8213L8.55213 11.9645C8.39131 11.8513 8.19767 11.7903 7.99894 11.7903C7.80021 11.7903 7.60657 11.8513 7.44575 11.9645L4.80929 13.8213C4.07108 14.3417 3.07863 13.6415 3.36017 12.8007L4.36768 9.79547C4.42905 9.61206 4.42894 9.41452 4.36736 9.23117C4.30579 9.04782 4.18592 8.88809 4.02494 8.77486L1.38941 6.91895C0.652145 6.39861 1.03161 5.26662 1.94307 5.26662H5.20193C5.40065 5.26667 5.5943 5.20577 5.75514 5.09262C5.91599 4.97948 6.03578 4.8199 6.09739 4.63673L7.10489 1.63149L7.10395 1.63058Z" fill="#1a1a1a"/>
</svg>
