<svg width="16" height="16" viewBox="0 0 16 16" fill="none" xmlns="http://www.w3.org/2000/svg">
<path d="M15.3469 10.6522C15.301 10.5218 15.2779 10.384 15.2785 10.2451V6.95679H14.4315V10.2451C14.4318 10.3837 14.4094 10.5214 14.3653 10.6522C14.3233 10.7855 14.2505 10.8729 14.1489 10.9166V10.9672H15.5676V10.9166C15.4661 10.8729 15.3911 10.7855 15.3469 10.6522Z" fill="#1D474F"/>
<path d="M15.1624 5.53245L14.8628 6.3018H14.8148C14.761 6.04756 14.6815 5.79995 14.5778 5.56307C14.4864 5.35476 14.3855 5.14246 14.1977 5.01268C14.093 4.95146 13.9745 4.92066 13.8546 4.9235C13.7269 4.91896 13.6007 4.95418 13.4923 5.02466C13.3924 5.09569 13.3118 5.19244 13.2585 5.30551C13.1951 5.43941 13.1526 5.58296 13.1326 5.73078C13.1079 5.90595 13.0962 6.08283 13.0975 6.25987V6.956H13.76V7.05848H13.0975V10.245C13.0964 10.3836 13.118 10.5213 13.1614 10.6523C13.2035 10.7854 13.2764 10.8726 13.3799 10.9165V10.9671H11.9641V10.9165C12.0159 10.8932 12.0622 10.8581 12.0995 10.8139C12.1368 10.7698 12.1643 10.7175 12.18 10.661C12.2254 10.5275 12.2479 10.3867 12.2465 10.245V7.0585H11.9641V6.956H12.2465V6.38432C12.2475 6.25333 12.2619 6.12283 12.2893 5.99498L12.3193 5.86987C12.3509 5.75377 12.3944 5.64154 12.449 5.53511C12.4011 5.43062 12.173 4.98871 11.7417 4.93014C11.7269 4.92758 11.712 4.92602 11.697 4.92549C11.6804 4.92416 11.6631 4.92349 11.6459 4.92349C11.6265 4.92337 11.6071 4.92426 11.5878 4.92615C11.576 4.92683 11.5643 4.92816 11.5526 4.93014C11.55 4.93026 11.5475 4.93071 11.545 4.93148C11.539 4.93204 11.533 4.93293 11.5271 4.93414C11.526 4.93429 11.5249 4.93452 11.5239 4.93481C11.5097 4.93735 11.4956 4.94068 11.4817 4.94479C11.4651 4.94878 11.4498 4.9541 11.4344 4.95943C11.4338 4.95943 11.4332 4.9601 11.4325 4.9601C11.4268 4.96191 11.4213 4.96413 11.4159 4.96675C11.398 4.97407 11.3808 4.98206 11.3642 4.99071C11.3571 4.9947 11.3501 4.9987 11.3437 5.00269C11.3286 5.01167 11.3138 5.02144 11.2996 5.03197C11.2924 5.0367 11.2856 5.04204 11.2792 5.04795C11.2586 5.06424 11.2392 5.08203 11.2211 5.10119C11.2089 5.11383 11.1974 5.12648 11.1859 5.13979V5.14045C11.1751 5.15443 11.1642 5.16774 11.154 5.18237L11.1386 5.20436C11.1335 5.21137 11.1288 5.2187 11.1245 5.22632C11.1245 5.22699 11.1239 5.22699 11.1233 5.22766C11.1136 5.24233 11.1048 5.25767 11.0971 5.27358C11.0918 5.28221 11.0871 5.29118 11.0829 5.30044C11.0721 5.32287 11.0548 5.35973 11.0454 5.38288C11.0367 5.40458 11.0281 5.42635 11.0204 5.4486C10.9749 5.58336 10.9447 5.72317 10.9303 5.86521C10.9278 5.88718 10.9258 5.90847 10.9239 5.92911V5.93243C10.9226 5.94308 10.922 5.95373 10.9214 5.96371C10.9195 5.99166 10.9175 6.01762 10.9163 6.04158C10.9163 6.05289 10.9156 6.06288 10.9156 6.07285C10.9131 6.14607 10.915 6.19132 10.915 6.19132V6.95667H11.5782V7.0585H10.915V10.2131C10.912 10.364 10.9354 10.5142 10.984 10.6563C11 10.713 11.0274 10.7654 11.0643 10.8103C11.1012 10.8551 11.1467 10.8913 11.198 10.9165V10.9671H9.7854V10.9165C9.88252 10.8726 9.95345 10.7854 9.99943 10.6523C10.0458 10.511 10.0689 10.3625 10.0678 10.2131V7.0585H9.7854V6.95667H10.0678V6.38432C10.0678 6.36036 10.0684 6.33641 10.0691 6.31245C10.0697 6.28982 10.071 6.26719 10.0729 6.2439V6.23924C10.0927 5.86921 10.1905 5.49985 10.4179 5.20834C10.63 4.93616 10.9994 4.78906 11.3581 4.78906C11.8436 4.78906 12.0408 4.91533 12.2453 5.11975C12.3435 5.21653 12.4277 5.32774 12.4951 5.44986L12.4963 5.45192C12.502 5.44127 12.509 5.43062 12.5161 5.41997C12.7256 5.09121 13.0924 4.81103 13.7262 4.79106C13.7364 4.79039 13.7466 4.79039 13.7562 4.79039C13.7702 4.78973 13.7837 4.78906 13.7984 4.78906V4.78973C13.9763 4.78661 14.1532 4.81868 14.3197 4.88423C14.6021 5.00003 14.7509 5.13247 14.972 5.34145C15.0059 5.37339 15.1624 5.53245 15.1624 5.53245Z" fill="#1D474F"/>
<path d="M6.45563 5.79495C6.54399 5.92796 6.62365 6.06702 6.69406 6.21118H6.73378L6.51744 4.84985H2.47099L2.25244 6.21118H2.2944C2.3598 6.06517 2.43814 5.92582 2.52839 5.79497C2.6241 5.65192 2.73438 5.52008 2.85731 5.40176C2.97958 5.28212 3.11882 5.18283 3.27013 5.10739C3.41783 5.03179 3.5802 4.99246 3.74477 4.99241H4.09382V10.2446C4.09382 10.3852 4.06205 10.5238 4.0011 10.6493C3.952 10.7645 3.86403 10.857 3.75385 10.9092V10.9666H5.28093V10.9092C5.17184 10.8562 5.08482 10.7639 5.0359 10.6493C4.97494 10.5238 4.94318 10.3852 4.9432 10.2446V4.99241H5.23484C5.40093 4.99141 5.56496 5.03078 5.71388 5.10739C5.86387 5.18399 6.00223 5.28318 6.1245 5.40174C6.24992 5.51818 6.36114 5.65024 6.45563 5.79495Z" fill="#1D474F"/>
<path d="M9.02164 10.6506C8.93602 10.4163 8.95136 10.4183 8.95264 8.8823V8.33257C8.95274 8.32591 8.95253 8.31924 8.952 8.3126C8.95227 8.31151 8.95249 8.31039 8.95264 8.30927C8.95264 8.30861 8.952 8.30794 8.952 8.30661C8.94939 8.18434 8.93526 8.06263 8.90983 7.94323L8.88555 7.81812C8.85393 7.70202 8.81045 7.58979 8.75585 7.48336L8.70857 7.40017C8.70282 7.38952 8.6958 7.37887 8.68877 7.36822C8.4792 7.03945 8.11248 6.75927 7.47869 6.7393C7.46846 6.73864 7.45824 6.73864 7.44866 6.73864C7.4346 6.73797 7.42119 6.7373 7.40649 6.7373V6.73797C7.22854 6.73485 7.05163 6.76692 6.88515 6.83248C6.60275 6.94828 6.45389 7.08071 6.23283 7.2897C6.19896 7.32164 6.04243 7.4807 6.04243 7.4807L6.34207 8.25005H6.38999C6.44387 7.99581 6.52332 7.7482 6.62702 7.51131C6.71838 7.303 6.81933 7.0907 7.00717 6.96094C7.11179 6.89972 7.23029 6.86892 7.35026 6.87176C7.47798 6.86723 7.6041 6.90244 7.71251 6.97292C7.81242 7.04395 7.89298 7.1407 7.94636 7.25377C8.00971 7.38767 8.0522 7.53122 8.07222 7.67904C8.09692 7.8542 8.10867 8.03107 8.10737 8.2081V8.3452C6.87748 8.81306 6.56825 8.87562 6.21366 9.26495C5.87951 9.63232 5.77026 10.2978 6.11207 10.7011C6.45133 11.1005 7.06404 11.0559 7.47804 10.8183C7.71708 10.6754 7.92905 10.4882 8.10353 10.2659C8.10374 10.3972 8.08145 10.5274 8.03772 10.6506C8.02331 10.7091 7.99641 10.7635 7.95902 10.8097C7.92163 10.8559 7.87472 10.8927 7.82177 10.9174V10.9667H9.24142V10.9174C9.18876 10.8917 9.14194 10.8546 9.10405 10.8086C9.06617 10.7626 9.03808 10.7087 9.02164 10.6506ZM8.10737 10.1854C7.60774 10.7245 7.00718 10.6832 6.80847 10.3724C6.71141 10.2242 6.66035 10.0486 6.66215 9.86927C6.66215 9.0234 7.43331 8.7299 8.10736 8.41378L8.10737 10.1854Z" fill="#1D474F"/>
</svg>
