<svg width="24" height="24" viewBox="0 0 24 24" fill="none" xmlns="http://www.w3.org/2000/svg">
<g clip-path="url(#clip0_9093_67143)">
<path d="M4.6665 5.58335C4.6665 5.34024 4.76308 5.10708 4.93499 4.93517C5.1069 4.76326 5.34006 4.66669 5.58317 4.66669H16.5832C16.8263 4.66669 17.0594 4.76326 17.2314 4.93517C17.4033 5.10708 17.4998 5.34024 17.4998 5.58335V8.33335C17.4998 8.57647 17.4033 8.80963 17.2314 8.98153C17.0594 9.15344 16.8263 9.25002 16.5832 9.25002C16.3401 9.25002 16.1069 9.15344 15.935 8.98153C15.7631 8.80963 15.6665 8.57647 15.6665 8.33335V6.50002H11.9998V17.5H12.9165C13.1596 17.5 13.3928 17.5966 13.5647 17.7685C13.7366 17.9404 13.8332 18.1736 13.8332 18.4167C13.8332 18.6598 13.7366 18.893 13.5647 19.0649C13.3928 19.2368 13.1596 19.3334 12.9165 19.3334H9.24984C9.00672 19.3334 8.77356 19.2368 8.60166 19.0649C8.42975 18.893 8.33317 18.6598 8.33317 18.4167C8.33317 18.1736 8.42975 17.9404 8.60166 17.7685C8.77356 17.5966 9.00672 17.5 9.24984 17.5H10.1665V6.50002H6.49984V8.33335C6.49984 8.57647 6.40326 8.80963 6.23135 8.98153C6.05944 9.15344 5.82629 9.25002 5.58317 9.25002C5.34006 9.25002 5.1069 9.15344 4.93499 8.98153C4.76308 8.80963 4.6665 8.57647 4.6665 8.33335V5.58335Z" fill="white"/>
</g>
<defs>
<clipPath id="clip0_9093_67143">
<rect width="24" height="24" fill="white"/>
</clipPath>
</defs>
</svg>
