<svg width="24" height="24" viewBox="0 0 24 24" fill="none" xmlns="http://www.w3.org/2000/svg">
<path fill-rule="evenodd" clip-rule="evenodd" d="M5.20042 19.3326C6.52879 16.9469 9.07614 15.3331 12.0004 15.3331C14.9245 15.3331 17.4717 16.9467 18.8002 19.332C20.7683 17.5058 22 14.8967 22 12C22 6.47715 17.5228 2 12 2C6.47715 2 2 6.47715 2 12C2 14.897 3.23189 17.5063 5.20042 19.3326ZM12.0007 14.222C14.3018 14.222 16.1673 12.3565 16.1673 10.0553C16.1673 7.75415 14.3018 5.88867 12.0007 5.88867C9.69947 5.88867 7.83399 7.75415 7.83399 10.0553C7.83399 12.3565 9.69947 14.222 12.0007 14.222Z" fill="white"/>
<path d="M12 22C17.5228 22 22 17.5228 22 12C22 6.47715 17.5228 2 12 2C6.47715 2 2 6.47715 2 12C2 17.5228 6.47715 22 12 22Z" stroke="white" stroke-width="1.5" stroke-linecap="round" stroke-linejoin="round"/>
</svg>
