<svg width="17" height="17" viewBox="0 0 17 17" fill="none" xmlns="http://www.w3.org/2000/svg">
<path d="M8.82422 10.212C10.2049 10.212 11.3242 9.09269 11.3242 7.71198C11.3242 6.33126 10.2049 5.21198 8.82422 5.21198C7.44351 5.21198 6.32422 6.33126 6.32422 7.71198C6.32422 9.09269 7.44351 10.212 8.82422 10.212Z" stroke="#F2F2F2" stroke-miterlimit="10"/>
<path d="M4.81152 12.6729C5.18815 11.9324 5.76235 11.3105 6.47054 10.8762C7.17873 10.4419 7.9933 10.212 8.82407 10.212C9.65485 10.212 10.4694 10.4419 11.1776 10.8762C11.8858 11.3105 12.46 11.9323 12.8366 12.6728" stroke="#F2F2F2" stroke-linecap="round" stroke-linejoin="round"/>
<path d="M11.8242 3.71198H14.8242" stroke="#F2F2F2" stroke-linecap="round" stroke-linejoin="round"/>
<path d="M13.3242 2.21198V5.21198" stroke="#F2F2F2" stroke-linecap="round" stroke-linejoin="round"/>
<path d="M14.7415 7.2119C14.9522 8.46494 14.7593 9.75253 14.1905 10.8888C13.6217 12.025 12.7066 12.9511 11.5772 13.5333C10.4478 14.1155 9.16262 14.3238 7.90716 14.128C6.6517 13.9322 5.49094 13.3425 4.59247 12.444C3.69399 11.5456 3.10429 10.3848 2.9085 9.12935C2.71271 7.87389 2.92097 6.58869 3.5032 5.4593C4.08543 4.32991 5.01151 3.41477 6.14774 2.846C7.28396 2.27723 8.57154 2.08426 9.82459 2.29496" stroke="#F2F2F2" stroke-linecap="round" stroke-linejoin="round"/>
</svg>
