<svg width="16" height="17" viewBox="0 0 16 17" fill="none" xmlns="http://www.w3.org/2000/svg">
<path d="M13.6068 2.82068C12.111 1.32493 10.1167 0.5 7.99547 0.5C3.62606 0.5 0.0634572 4.05354 0.0634572 8.43201C0.0634572 9.82805 0.426062 11.1969 1.12408 12.3935L0 16.5L4.20623 15.3941C5.36657 16.0286 6.67196 16.355 7.99547 16.355C12.3649 16.355 15.9275 12.8014 15.9275 8.42295C15.9275 6.31077 15.1116 4.3255 13.6068 2.82068ZM8.00453 15.0224C6.817 15.0224 5.65666 14.7051 4.65043 14.1068L4.40567 13.9618L1.91275 14.6144L2.5745 12.185L2.4204 11.9312C1.75864 10.8796 1.41417 9.66487 1.41417 8.42295C1.41417 4.78782 4.36941 1.83258 8.00453 1.83258C9.76318 1.83258 11.4221 2.52153 12.664 3.76346C13.906 5.00538 14.5949 6.66431 14.5949 8.42295C14.5858 12.0671 11.6306 15.0224 8.00453 15.0224ZM11.6125 10.0909C11.413 9.99122 10.4431 9.51076 10.2618 9.44731C10.0805 9.38385 9.94448 9.3476 9.81757 9.54703C9.68159 9.74646 9.30992 10.1907 9.19207 10.3266C9.07423 10.4626 8.96544 10.4717 8.76601 10.372C8.56658 10.2722 7.93201 10.0637 7.17054 9.39292C6.58131 8.86714 6.18244 8.21445 6.06459 8.02408C5.94674 7.82465 6.05553 7.71587 6.15524 7.61615C6.24589 7.5255 6.35468 7.38045 6.45439 7.27167C6.55411 7.15382 6.59037 7.07224 6.65383 6.94533C6.71728 6.80935 6.69009 6.70057 6.6357 6.60085C6.59037 6.50113 6.1915 5.5221 6.02833 5.1323C5.86516 4.74249 5.70199 4.79688 5.58414 4.78782C5.46629 4.77875 5.33938 4.77875 5.2034 4.77875C5.06742 4.77875 4.85893 4.82408 4.67762 5.02351C4.49632 5.22295 3.9796 5.7034 3.9796 6.67337C3.9796 7.65241 4.68669 8.58612 4.7864 8.7221C4.88612 8.85807 6.18244 10.8524 8.16771 11.7136C8.63909 11.9221 9.01077 12.0399 9.30085 12.1306C9.77224 12.2847 10.2074 12.2575 10.5518 12.2122C10.9326 12.1578 11.7213 11.7317 11.8935 11.2694C12.0567 10.8071 12.0567 10.4082 12.0113 10.3266C11.9479 10.236 11.8119 10.1816 11.6125 10.0909Z" fill="#1A1A1A"/>
</svg>
